<svg width="18" height="18" viewBox="0 0 18 18" fill="none" xmlns="http://www.w3.org/2000/svg">
<g id="01 align center">
<path id="Vector" d="M17.3192 12.11L15.3941 5.17131C14.983 3.68703 14.0872 2.38291 12.8494 1.4665C11.6115 0.550091 10.1027 0.0740557 8.56311 0.114158C7.02349 0.15426 5.54151 0.708195 4.35305 1.6878C3.16459 2.66741 2.33795 4.01639 2.00468 5.52005L0.515657 12.221C0.443606 12.5457 0.445364 12.8824 0.520799 13.2062C0.596235 13.5301 0.743423 13.8329 0.951506 14.0923C1.15959 14.3517 1.42325 14.561 1.72305 14.7049C2.02285 14.8488 2.35113 14.9236 2.68367 14.9237H5.35444C5.52438 15.7606 5.97843 16.513 6.63965 17.0534C7.30087 17.5939 8.1286 17.8891 8.9826 17.8891C9.83659 17.8891 10.6643 17.5939 11.3255 17.0534C11.9868 16.513 12.4408 15.7606 12.6108 14.9237H15.1801C15.5223 14.9235 15.8598 14.8443 16.1663 14.6922C16.4728 14.5402 16.74 14.3194 16.9472 14.047C17.1543 13.7747 17.2957 13.4581 17.3604 13.1221C17.425 12.7861 17.4105 12.4398 17.3192 12.11ZM8.9826 16.4045C8.52481 16.4026 8.07879 16.2593 7.70556 15.9943C7.33233 15.7292 7.05011 15.3553 6.89752 14.9237H11.0677C10.9151 15.3553 10.6329 15.7292 10.2596 15.9943C9.8864 16.2593 9.44038 16.4026 8.9826 16.4045ZM15.7687 13.1503C15.6997 13.2419 15.6101 13.316 15.5073 13.3668C15.4044 13.4176 15.2911 13.4436 15.1764 13.4428H2.68367C2.57279 13.4428 2.46334 13.4178 2.36339 13.3699C2.26343 13.3219 2.17553 13.2521 2.10616 13.1656C2.0368 13.0791 1.98774 12.9781 1.96262 12.8701C1.93749 12.7621 1.93694 12.6499 1.961 12.5417L3.45002 5.84066C3.7124 4.66055 4.36173 3.60202 5.2948 2.83333C6.22786 2.06463 7.39111 1.6299 8.59962 1.59825C9.80813 1.56659 10.9925 1.93981 11.9646 2.6586C12.9366 3.37738 13.6405 4.40047 13.9643 5.56522L15.8894 12.5039C15.9209 12.6136 15.9263 12.7291 15.9054 12.8413C15.8844 12.9535 15.8376 13.0593 15.7687 13.1503Z" fill="#495057"/>
</g>
</svg>
