<svg width="24" height="24" viewBox="0 0 24 24" fill="none" xmlns="http://www.w3.org/2000/svg">
<g id="ads_click">
<mask id="mask0_10945_2003" style="mask-type:alpha" maskUnits="userSpaceOnUse" x="0" y="0" width="24" height="24">
<rect id="Bounding box" width="24" height="24" fill="#D9D9D9"/>
</mask>
<g mask="url(#mask0_10945_2003)">
<path id="ads_click_2" d="M12 8C10.9 8 9.95833 8.39167 9.175 9.175C8.39167 9.95833 8 10.9 8 12C8 12.7948 8.21317 13.5202 8.6395 14.176C9.06567 14.8318 9.641 15.3219 10.3655 15.6463C10.5617 15.7411 10.7027 15.8856 10.7885 16.0798C10.8743 16.2741 10.875 16.4693 10.7905 16.6653C10.7058 16.8409 10.5773 16.9743 10.4048 17.0653C10.2324 17.1564 10.0584 17.1597 9.88275 17.075C8.85842 16.6455 8.0385 15.9712 7.423 15.052C6.80767 14.1327 6.5 13.1153 6.5 12C6.5 10.4743 7.03525 9.17625 8.10575 8.10575C9.17625 7.03525 10.4743 6.5 12 6.5C13.1192 6.5 14.1426 6.80767 15.0703 7.423C15.9978 8.0385 16.6711 8.8655 17.0903 9.904C17.1648 10.0795 17.1574 10.2551 17.0682 10.4308C16.9791 10.6064 16.8467 10.7314 16.6712 10.8057C16.4686 10.8904 16.2692 10.8872 16.073 10.7963C15.8768 10.7053 15.7313 10.5584 15.6365 10.3558C15.3122 9.63142 14.8221 9.05767 14.1663 8.6345C13.5106 8.2115 12.7885 8 12 8ZM12 4C9.76667 4 7.875 4.775 6.325 6.325C4.775 7.875 4 9.76667 4 12C4 14.1642 4.7205 16.0027 6.1615 17.5155C7.6025 19.0283 9.39358 19.8463 11.5348 19.9693C11.7474 19.9898 11.9307 20.0795 12.0845 20.2385C12.2385 20.3975 12.3103 20.5834 12.3 20.7963C12.2897 21.0089 12.2128 21.1861 12.0693 21.3278C11.9256 21.4694 11.7474 21.5352 11.5348 21.525C10.2603 21.4737 9.07492 21.1807 7.97875 20.646C6.88275 20.1115 5.92667 19.4109 5.1105 18.5443C4.2945 17.6776 3.65542 16.6808 3.19325 15.5538C2.73108 14.4269 2.5 13.2423 2.5 12C2.5 10.6872 2.74967 9.45292 3.249 8.29725C3.74833 7.14142 4.42558 6.13592 5.28075 5.28075C6.13592 4.42558 7.14142 3.74833 8.29725 3.249C9.45292 2.74967 10.6872 2.5 12 2.5C14.4948 2.5 16.6763 3.36442 18.5443 5.09325C20.4121 6.82208 21.4057 8.966 21.525 11.525C21.5455 11.7275 21.4839 11.9022 21.3403 12.049C21.1968 12.1958 21.0186 12.2743 20.8057 12.2845C20.5929 12.2948 20.4028 12.224 20.2355 12.072C20.0682 11.9202 19.9743 11.7378 19.9538 11.525C19.7999 9.47367 18.9612 7.70667 17.4375 6.224C15.9138 4.74133 14.1013 4 12 4ZM19.3962 20.8845L15.6058 17.1L14.971 19.0288C14.8942 19.2429 14.7487 19.3474 14.5345 19.3423C14.3205 19.3371 14.1783 19.2274 14.1077 19.0133L12.2463 12.8135C12.1924 12.643 12.2308 12.4923 12.3615 12.3615C12.4923 12.2308 12.643 12.1924 12.8135 12.2463L19.0133 14.1078C19.2274 14.1783 19.3371 14.3205 19.3423 14.5345C19.3474 14.7487 19.2429 14.8942 19.0288 14.971L17.1 15.6058L20.9 19.3963C21.1128 19.6089 21.2193 19.8569 21.2193 20.1403C21.2193 20.4236 21.1128 20.6717 20.9 20.8845C20.6872 21.0973 20.4365 21.2038 20.148 21.2038C19.8595 21.2038 19.6089 21.0973 19.3962 20.8845Z" fill="#495057"/>
</g>
</g>
</svg>
