<svg width="24" height="24" viewBox="0 0 24 24" fill="none" xmlns="http://www.w3.org/2000/svg">
<g id="keyboard_arrow_down">
<mask id="mask0_10945_2012" style="mask-type:alpha" maskUnits="userSpaceOnUse" x="0" y="0" width="24" height="24">
<rect id="Bounding box" width="24" height="24" fill="#D9D9D9"/>
</mask>
<g mask="url(#mask0_10945_2012)">
<path id="keyboard_arrow_down_2" d="M12.3396 15.0213C12.2191 15.0213 12.1069 15.002 12.0031 14.9635C11.8993 14.925 11.8005 14.859 11.7069 14.7655L7.2126 10.2713C7.07427 10.1328 7.00343 9.95867 7.0001 9.749C6.99693 9.5395 7.06777 9.36225 7.2126 9.21725C7.3576 9.07242 7.53327 9 7.7396 9C7.94593 9 8.1216 9.07242 8.2666 9.21725L12.3396 13.2905L16.4126 9.21725C16.5511 9.07892 16.7252 9.00808 16.9349 9.00475C17.1444 9.00158 17.3216 9.07242 17.4666 9.21725C17.6114 9.36225 17.6839 9.53792 17.6839 9.74425C17.6839 9.95058 17.6114 10.1263 17.4666 10.2713L12.9724 14.7655C12.8787 14.859 12.7799 14.925 12.6761 14.9635C12.5723 15.002 12.4601 15.0213 12.3396 15.0213Z" fill="#495057"/>
</g>
</g>
</svg>
