<svg width="24" height="24" viewBox="0 0 24 24" fill="none" xmlns="http://www.w3.org/2000/svg">
<g id="asterisk">
<mask id="mask0_10945_2120" style="mask-type:alpha" maskUnits="userSpaceOnUse" x="0" y="0" width="24" height="24">
<rect id="Bounding box" width="24" height="24" fill="#D9D9D9"/>
</mask>
<g mask="url(#mask0_10945_2120)">
<path id="asterisk_2" d="M11.9998 20.5C11.7871 20.5 11.609 20.4281 11.4655 20.2843C11.3218 20.1406 11.25 19.9625 11.25 19.75V13.8038L7.05 18.0193C6.90133 18.1679 6.72475 18.2438 6.52025 18.247C6.31575 18.2503 6.13592 18.1744 5.98075 18.0193C5.82558 17.8641 5.748 17.6858 5.748 17.4845C5.748 17.2833 5.82558 17.1052 5.98075 16.95L10.1963 12.75H4.25C4.0375 12.75 3.85942 12.6781 3.71575 12.5343C3.57192 12.3904 3.5 12.2122 3.5 11.9998C3.5 11.7871 3.57192 11.609 3.71575 11.4655C3.85942 11.3218 4.0375 11.25 4.25 11.25H10.1963L5.98075 7.05C5.83208 6.90133 5.75617 6.72317 5.753 6.5155C5.74967 6.30767 5.824 6.12942 5.976 5.98075C6.12783 5.83208 6.30767 5.75933 6.5155 5.7625C6.72317 5.76567 6.90133 5.84167 7.05 5.9905L11.25 10.2057V4.25C11.25 4.0375 11.3219 3.85942 11.4658 3.71575C11.6096 3.57192 11.7878 3.5 12.0003 3.5C12.2129 3.5 12.391 3.57192 12.5345 3.71575C12.6782 3.85942 12.75 4.0375 12.75 4.25V10.2057L16.9595 5.98075C17.1083 5.83208 17.285 5.75933 17.4895 5.7625C17.694 5.76567 17.8706 5.841 18.0193 5.9885C18.1679 6.13583 18.2423 6.31075 18.2423 6.51325C18.2423 6.71592 18.1679 6.89167 18.0193 7.0405L13.7943 11.25H19.75C19.9625 11.25 20.1406 11.3219 20.2843 11.4658C20.4281 11.6096 20.5 11.7878 20.5 12.0003C20.5 12.2129 20.4281 12.391 20.2843 12.5345C20.1406 12.6782 19.9625 12.75 19.75 12.75H13.7943L18.0193 16.9595C18.1679 17.1083 18.2423 17.285 18.2423 17.4895C18.2423 17.694 18.1679 17.8722 18.0193 18.024C17.8706 18.176 17.6923 18.2503 17.4845 18.247C17.2768 18.2438 17.0987 18.1679 16.95 18.0193L12.75 13.8038V19.75C12.75 19.9625 12.6781 20.1406 12.5343 20.2843C12.3904 20.4281 12.2122 20.5 11.9998 20.5Z" fill="#495057"/>
</g>
</g>
</svg>
