<svg width="80" height="80" viewBox="0 0 80 80" fill="none" xmlns="http://www.w3.org/2000/svg">
<g id="buy-online">
<g id="Group">
<path id="Vector" d="M80 22.6945V18.1245C80 17.9371 79.9662 17.7512 79.9005 17.5759L75.2128 5.07543C74.9842 4.46559 74.4011 4.06152 73.7498 4.06152H6.25016C5.59891 4.06152 5.01578 4.46559 4.78719 5.07543L0.0995313 17.5761C0.03375 17.7514 0 17.9373 0 18.1246V22.6946C0 25.3928 1.68781 27.7028 4.0625 28.6282V58.7504C4.0625 61.3351 6.16531 63.4379 8.75 63.4379H31.1523L30.0144 72.8131H25.1562C24.2933 72.8131 23.5938 73.5126 23.5938 74.3756C23.5938 75.2386 24.2933 75.9381 25.1562 75.9381H53.2812C54.1442 75.9381 54.8438 75.2386 54.8438 74.3756C54.8438 73.5126 54.1442 72.8131 53.2812 72.8131H48.4231L47.2852 63.4379H63.557L64.3197 65.505C64.5987 66.4081 65.2858 67.0809 66.1703 67.3118C67.0709 67.547 68.0389 67.2845 68.6964 66.627L69.8489 65.4746L72.5064 68.1321C73.0025 68.6282 73.662 68.9014 74.3636 68.9014C75.0652 68.9014 75.7247 68.6281 76.2208 68.1321L79.2308 65.1221C80.2545 64.0981 80.2545 62.4318 79.2306 61.4078L76.5731 58.7503L77.7248 57.5987C78.372 56.9526 78.6322 56.0332 78.4209 55.1393C78.2123 54.2565 77.5786 53.5568 76.7228 53.2617L75.9375 52.9723V28.6282C78.3122 27.7026 80 25.3928 80 22.6945ZM76.875 18.4079V22.6945C76.875 24.4821 75.4205 25.9367 73.6328 25.9367C71.8452 25.9367 70.3906 24.4823 70.3906 22.6945V18.1245C70.3906 17.9814 70.3711 17.8392 70.3322 17.7014L67.3748 7.18637H72.667L76.875 18.4079ZM12.7344 18.3403L15.8714 7.18668H21.2425L19.2456 17.8368C19.2278 17.9317 19.2189 18.0282 19.2189 18.1248V22.6948C19.2189 24.4825 17.7644 25.937 15.9767 25.937C14.1891 25.937 12.7345 24.4826 12.7345 22.6948L12.7344 18.3403ZM22.3438 18.2698L24.4219 7.18652H29.8467L28.835 17.9787C28.8305 18.0273 28.8283 18.0759 28.8283 18.1246V22.6946C28.8283 24.4823 27.3738 25.9368 25.5861 25.9368C23.7984 25.9368 22.3438 24.4823 22.3438 22.6945V18.2698ZM31.9531 18.1976L32.9855 7.18652H38.4375V22.6945C38.4375 24.4821 36.983 25.9367 35.1953 25.9367C33.4077 25.9367 31.9531 24.4823 31.9531 22.6945V18.1976ZM41.5625 7.18652H47.0145L48.0469 18.1976V22.6945C48.0469 24.4821 46.5923 25.9367 44.8047 25.9367C43.017 25.9367 41.5625 24.4823 41.5625 22.6945V7.18652ZM51.1652 17.9787L50.1534 7.18652H55.5781L57.6562 18.2698V22.6945C57.6562 24.4821 56.2017 25.9367 54.4141 25.9367C52.6264 25.9367 51.1719 24.4823 51.1719 22.6945V18.1245C51.1719 18.0759 51.1695 18.0273 51.1652 17.9787ZM60.7545 17.8367L58.7577 7.18652H64.1288L67.2658 18.3401V22.6945C67.2658 24.4821 65.8112 25.9367 64.0236 25.9367C62.2359 25.9367 60.7812 24.4823 60.7812 22.6945V18.1245C60.7812 18.0281 60.7723 17.9315 60.7545 17.8367ZM3.125 18.4079L7.33297 7.18652H12.6252L9.66781 17.7015C9.62906 17.8392 9.60938 17.9815 9.60938 18.1246V22.6946C9.60938 24.4823 8.15484 25.9368 6.36719 25.9368C4.57953 25.9368 3.125 24.4823 3.125 22.6945V18.4079ZM45.2752 72.8131H33.1623L34.3003 63.4379H44.1372L45.2752 72.8131ZM76.6686 63.2651L74.3638 65.5698L70.9539 62.16C70.6488 61.8548 70.2489 61.7023 69.8491 61.7023C69.4492 61.7023 69.0492 61.855 68.7442 62.16L67.0439 63.8603L62.4164 51.3172L74.9614 55.9428L73.2588 57.6453C72.9658 57.9382 72.8011 58.3357 72.8011 58.7501C72.8011 59.1645 72.9658 59.562 73.2588 59.855L76.6686 63.2651ZM62.4459 47.9976C62.4333 47.9929 62.4205 47.9884 62.4077 47.984C61.4605 47.6626 60.4295 47.902 59.7177 48.6092C59.0072 49.315 58.7617 50.3428 59.0767 51.2918C59.0822 51.3081 59.0878 51.3242 59.0938 51.3403L60.0981 54.0626H46.2492C45.3862 54.0626 44.6867 54.7621 44.6867 55.6251C44.6867 56.4881 45.3862 57.1876 46.2492 57.1876H61.2509L62.4039 60.3126H8.75C7.88844 60.3126 7.1875 59.6117 7.1875 58.7501V57.1876H32.1869C33.0498 57.1876 33.7494 56.4881 33.7494 55.6251C33.7494 54.7621 33.0498 54.0626 32.1869 54.0626H7.1875V29.007C8.77031 28.8023 10.1733 28.0164 11.1719 26.8682C12.3402 28.2114 14.0608 29.0617 15.9766 29.0617C17.8923 29.0617 19.613 28.2114 20.7812 26.8682C21.9495 28.2114 23.6702 29.0617 25.5859 29.0617C27.5017 29.0617 29.2223 28.2114 30.3906 26.8682C31.5589 28.2114 33.2795 29.0617 35.1953 29.0617C37.1111 29.0617 38.8317 28.2114 40 26.8682C41.1683 28.2114 42.8889 29.0617 44.8047 29.0617C46.7205 29.0617 48.4411 28.2114 49.6094 26.8682C50.7777 28.2114 52.4983 29.0617 54.4141 29.0617C56.3298 29.0617 58.0505 28.2114 59.2188 26.8682C60.387 28.2114 62.1077 29.0617 64.0234 29.0617C65.9392 29.0617 67.6598 28.2114 68.8281 26.8682C69.8267 28.0164 71.2297 28.8023 72.8125 29.007V51.82L62.4459 47.9976Z" fill="#495057"/>
<path id="Vector_2" d="M42.3438 33.7495C41.4808 33.7495 40.7812 34.449 40.7812 35.312V44.6872C40.7812 45.5487 40.0803 46.2497 39.2188 46.2497C38.3572 46.2497 37.6562 45.5487 37.6562 44.6872V35.312C37.6562 34.449 36.9567 33.7495 36.0938 33.7495C35.2308 33.7495 34.5312 34.449 34.5312 35.312V44.6872C34.5312 47.2719 36.6341 49.3747 39.2188 49.3747C41.8034 49.3747 43.9062 47.2719 43.9062 44.6872V35.312C43.9062 34.449 43.2066 33.7495 42.3438 33.7495Z" fill="#495057"/>
<path id="Vector_3" d="M27.5 33.7495H24.375C23.512 33.7495 22.8125 34.449 22.8125 35.312V47.812C22.8125 48.675 23.512 49.3745 24.375 49.3745H27.5C30.0847 49.3745 32.1875 47.2717 32.1875 44.687C32.1875 43.4876 31.7347 42.392 30.9911 41.562C31.7347 40.732 32.1875 39.6364 32.1875 38.437C32.1873 35.8523 30.0847 33.7495 27.5 33.7495ZM27.5 36.8745C28.3616 36.8745 29.0625 37.5754 29.0625 38.437C29.0625 39.2986 28.3616 39.9995 27.5 39.9995H25.9375V36.8745H27.5ZM27.5 46.2497H25.9375V43.1247H27.5C28.3616 43.1247 29.0625 43.8256 29.0625 44.6872C29.0625 45.5487 28.3614 46.2497 27.5 46.2497Z" fill="#495057"/>
<path id="Vector_4" d="M54.0625 33.7495C53.1995 33.7495 52.5 34.449 52.5 35.312V39.7847C52.5 40.6462 51.7991 41.3472 50.9375 41.3472C50.0759 41.3472 49.375 40.6462 49.375 39.7847V35.312C49.375 34.449 48.6755 33.7495 47.8125 33.7495C46.9495 33.7495 46.25 34.449 46.25 35.312V39.7847C46.25 41.8215 47.5564 43.5584 49.375 44.2034V47.8122C49.375 48.6751 50.0745 49.3747 50.9375 49.3747C51.8005 49.3747 52.5 48.6751 52.5 47.8122V44.2034C54.3186 43.5584 55.625 41.8217 55.625 39.7847V35.312C55.625 34.449 54.9255 33.7495 54.0625 33.7495Z" fill="#495057"/>
<path id="Vector_5" d="M39.2192 54.0625H39.2181C38.3552 54.0625 37.6562 54.762 37.6562 55.625C37.6562 56.488 38.3563 57.1875 39.2192 57.1875C40.0822 57.1875 40.7817 56.488 40.7817 55.625C40.7817 54.762 40.082 54.0625 39.2192 54.0625Z" fill="#495057"/>
</g>
</g>
</svg>
