<svg width="24" height="24" viewBox="0 0 24 24" fill="none" xmlns="http://www.w3.org/2000/svg">
<g id="close_small">
<mask id="mask0_10945_2114" style="mask-type:alpha" maskUnits="userSpaceOnUse" x="0" y="0" width="24" height="24">
<rect id="Bounding box" width="24" height="24" fill="#D9D9D9"/>
</mask>
<g mask="url(#mask0_10945_2114)">
<path id="close_small_2" d="M12.0001 13.0635L8.91988 16.152C8.77388 16.2968 8.59687 16.3677 8.38887 16.3645C8.18071 16.3612 8.00371 16.2871 7.85788 16.1423C7.71304 15.9974 7.64062 15.8202 7.64062 15.6105C7.64062 15.401 7.71304 15.2238 7.85788 15.0788L10.9366 12.0008L7.85788 8.94476C7.71304 8.79876 7.64062 8.62018 7.64062 8.40901C7.64062 8.19768 7.71304 8.01901 7.85788 7.87301C8.00271 7.72818 8.17996 7.65576 8.38962 7.65576C8.59912 7.65576 8.77638 7.72818 8.92138 7.87301L12.0001 10.9615L15.0554 7.87301C15.2014 7.72818 15.3784 7.65576 15.5864 7.65576C15.7945 7.65576 15.9715 7.72818 16.1174 7.87301C16.2725 8.02818 16.3501 8.20801 16.3501 8.41251C16.3501 8.61701 16.2725 8.79168 16.1174 8.93651L13.0386 12L16.1271 15.0803C16.272 15.2263 16.3444 15.4033 16.3444 15.6113C16.3444 15.8194 16.272 15.9964 16.1271 16.1423C15.972 16.2974 15.7921 16.375 15.5876 16.375C15.3831 16.375 15.2085 16.2974 15.0636 16.1423L12.0001 13.0635Z" fill="#495057"/>
</g>
</g>
</svg>
