<svg width="24" height="24" viewBox="0 0 24 24" fill="none" xmlns="http://www.w3.org/2000/svg">
<g id="favorite">
<mask id="mask0_10945_2002" style="mask-type:alpha" maskUnits="userSpaceOnUse" x="0" y="0" width="24" height="24">
<rect id="Bounding box" width="24" height="24" fill="#D9D9D9"/>
</mask>
<g mask="url(#mask0_10945_2002)">
<path id="favorite_2" d="M11.9905 19.7094C11.7763 19.7094 11.5612 19.671 11.3453 19.5942C11.1293 19.5172 10.9392 19.3967 10.775 19.2327L9.3385 17.9269C7.5655 16.3102 5.9825 14.7221 4.5895 13.1624C3.1965 11.6027 2.5 9.9319 2.5 8.1499C2.5 6.73074 2.9785 5.54257 3.9355 4.5854C4.89267 3.6284 6.08083 3.1499 7.5 3.1499C8.30633 3.1499 9.10283 3.33582 9.8895 3.70765C10.676 4.07949 11.3795 4.68332 12 5.51915C12.6205 4.68332 13.324 4.07949 14.1105 3.70765C14.8972 3.33582 15.6937 3.1499 16.5 3.1499C17.9192 3.1499 19.1073 3.6284 20.0645 4.5854C21.0215 5.54257 21.5 6.73074 21.5 8.1499C21.5 9.95124 20.7917 11.6407 19.375 13.2182C17.9583 14.7957 16.3788 16.3703 14.6365 17.9422L13.2153 19.2327C13.0513 19.3967 12.8597 19.5172 12.6405 19.5942C12.4212 19.671 12.2045 19.7094 11.9905 19.7094Z" fill="#495057"/>
</g>
</g>
</svg>
