<svg width="20" height="20" viewBox="0 0 20 20" fill="none" xmlns="http://www.w3.org/2000/svg">
<g id="Group 1355">
<path id="Polygon 8" d="M9 0.57735C9.6188 0.220085 10.3812 0.220085 11 0.57735L17.6603 4.42265C18.2791 4.77992 18.6603 5.44017 18.6603 6.1547V13.8453C18.6603 14.5598 18.2791 15.2201 17.6603 15.5774L11 19.4226C10.3812 19.7799 9.6188 19.7799 9 19.4226L2.33975 15.5774C1.72094 15.2201 1.33975 14.5598 1.33975 13.8453V6.1547C1.33975 5.44017 1.72094 4.77992 2.33975 4.42265L9 0.57735Z" fill="#8C9BC7"/>
<path id="S" d="M9.93839 13.6059C9.42146 13.6059 8.92608 13.5382 8.45223 13.4029C7.97839 13.2613 7.59685 13.0798 7.30762 12.8582L7.81531 11.7321C8.09223 11.929 8.41839 12.0921 8.79377 12.2213C9.17531 12.3444 9.55993 12.4059 9.94762 12.4059C10.243 12.4059 10.4799 12.3782 10.6584 12.3229C10.843 12.2613 10.9784 12.1782 11.0645 12.0736C11.1507 11.969 11.1938 11.849 11.1938 11.7136C11.1938 11.5413 11.1261 11.4059 10.9907 11.3075C10.8553 11.2029 10.6768 11.1198 10.4553 11.0582C10.2338 10.9905 9.98762 10.929 9.71685 10.8736C9.45223 10.8121 9.18454 10.7382 8.91377 10.6521C8.64916 10.5659 8.40608 10.4552 8.18454 10.3198C7.963 10.1844 7.78146 10.0059 7.63992 9.78439C7.50454 9.56285 7.43685 9.27977 7.43685 8.93516C7.43685 8.56593 7.53531 8.23054 7.73223 7.92901C7.93531 7.62131 8.23685 7.37824 8.63685 7.19977C9.043 7.01516 9.55069 6.92285 10.1599 6.92285C10.5661 6.92285 10.9661 6.97208 11.3599 7.07054C11.7538 7.16285 12.1015 7.30439 12.403 7.49516L11.9415 8.63054C11.6399 8.45824 11.3384 8.33208 11.0368 8.25208C10.7353 8.16593 10.4399 8.12285 10.1507 8.12285C9.86146 8.12285 9.62454 8.1567 9.43992 8.22439C9.25531 8.29208 9.123 8.38131 9.043 8.49208C8.963 8.5967 8.923 8.71977 8.923 8.86131C8.923 9.02747 8.99069 9.16285 9.12608 9.26747C9.26146 9.36593 9.43993 9.44593 9.66146 9.50747C9.883 9.56901 10.1261 9.63054 10.3907 9.69208C10.6615 9.75362 10.9292 9.82439 11.1938 9.90439C11.4645 9.98439 11.7107 10.0921 11.9322 10.2275C12.1538 10.3629 12.3322 10.5413 12.4676 10.7629C12.6092 10.9844 12.6799 11.2644 12.6799 11.6029C12.6799 11.9659 12.5784 12.2982 12.3753 12.5998C12.1722 12.9013 11.8676 13.1444 11.4615 13.329C11.0615 13.5136 10.5538 13.6059 9.93839 13.6059Z" fill="white"/>
</g>
</svg>
