<svg width="20" height="20" viewBox="0 0 20 20" fill="none" xmlns="http://www.w3.org/2000/svg">
<g id="Group 1352">
<path id="Polygon 7" d="M9 0.57735C9.6188 0.220085 10.3812 0.220085 11 0.57735L17.6603 4.42265C18.2791 4.77992 18.6603 5.44017 18.6603 6.1547V13.8453C18.6603 14.5598 18.2791 15.2201 17.6603 15.5774L11 19.4226C10.3812 19.7799 9.6188 19.7799 9 19.4226L2.33975 15.5774C1.72094 15.2201 1.33975 14.5598 1.33975 13.8453V6.1547C1.33975 5.44017 1.72094 4.77992 2.33975 4.42265L9 0.57735Z" fill="#F4C336"/>
<path id="G" d="M10.5262 13.6831C10.0154 13.6831 9.54462 13.6031 9.11385 13.4431C8.68923 13.2769 8.31692 13.0431 7.99692 12.7415C7.68308 12.44 7.43692 12.0862 7.25846 11.68C7.08615 11.2738 7 10.8277 7 10.3415C7 9.85538 7.08615 9.40923 7.25846 9.00308C7.43692 8.59692 7.68615 8.24308 8.00615 7.94154C8.32615 7.64 8.70154 7.40923 9.13231 7.24923C9.56308 7.08308 10.0369 7 10.5538 7C11.1262 7 11.64 7.09538 12.0954 7.28615C12.5569 7.47692 12.9446 7.75385 13.2585 8.11692L12.2985 9.00308C12.0646 8.75692 11.8092 8.57538 11.5323 8.45846C11.2554 8.33538 10.9538 8.27385 10.6277 8.27385C10.3138 8.27385 10.0277 8.32308 9.76923 8.42154C9.51077 8.52 9.28615 8.66154 9.09538 8.84615C8.91077 9.03077 8.76615 9.24923 8.66154 9.50154C8.56308 9.75385 8.51385 10.0338 8.51385 10.3415C8.51385 10.6431 8.56308 10.92 8.66154 11.1723C8.76615 11.4246 8.91077 11.6462 9.09538 11.8369C9.28615 12.0215 9.50769 12.1631 9.76 12.2615C10.0185 12.36 10.3015 12.4092 10.6092 12.4092C10.9046 12.4092 11.1908 12.3631 11.4677 12.2708C11.7508 12.1723 12.0246 12.0092 12.2892 11.7815L13.1385 12.8615C12.7877 13.1262 12.3785 13.3292 11.9108 13.4708C11.4492 13.6123 10.9877 13.6831 10.5262 13.6831ZM11.7723 12.6677V10.24H13.1385V12.8615L11.7723 12.6677Z" fill="white"/>
</g>
</svg>
