<svg width="20" height="20" viewBox="0 0 20 20" fill="none" xmlns="http://www.w3.org/2000/svg">
<g id="Group 1351">
<path id="Polygon 3" d="M9 0.57735C9.6188 0.220085 10.3812 0.220085 11 0.57735L17.6603 4.42265C18.2791 4.77992 18.6603 5.44017 18.6603 6.1547V13.8453C18.6603 14.5598 18.2791 15.2201 17.6603 15.5774L11 19.4226C10.3812 19.7799 9.6188 19.7799 9 19.4226L2.33975 15.5774C1.72094 15.2201 1.33975 14.5598 1.33975 13.8453V6.1547C1.33975 5.44017 1.72094 4.77992 2.33975 4.42265L9 0.57735Z" fill="#EE465A"/>
<path id="P" d="M7.69238 13.3844V6.92285H10.4893C11.0678 6.92285 11.5662 7.01824 11.9847 7.20901C12.4032 7.39362 12.7262 7.66131 12.9539 8.01208C13.1816 8.36285 13.2955 8.78131 13.2955 9.26747C13.2955 9.74747 13.1816 10.1629 12.9539 10.5136C12.7262 10.8644 12.4032 11.1352 11.9847 11.3259C11.5662 11.5105 11.0678 11.6029 10.4893 11.6029H8.52315L9.18777 10.929V13.3844H7.69238ZM9.18777 11.0952L8.52315 10.3844H10.4062C10.8678 10.3844 11.2124 10.2859 11.4401 10.089C11.6678 9.89208 11.7816 9.61824 11.7816 9.26747C11.7816 8.91054 11.6678 8.63362 11.4401 8.4367C11.2124 8.23977 10.8678 8.14131 10.4062 8.14131H8.52315L9.18777 7.43054V11.0952Z" fill="white"/>
</g>
</svg>
