<svg width="20" height="20" viewBox="0 0 20 20" fill="none" xmlns="http://www.w3.org/2000/svg">
<g id="Group 1356">
<path id="Polygon 9" d="M9 0.57735C9.6188 0.220085 10.3812 0.220085 11 0.57735L17.6603 4.42265C18.2791 4.77992 18.6603 5.44017 18.6603 6.1547V13.8453C18.6603 14.5598 18.2791 15.2201 17.6603 15.5774L11 19.4226C10.3812 19.7799 9.6188 19.7799 9 19.4226L2.33975 15.5774C1.72094 15.2201 1.33975 14.5598 1.33975 13.8453V6.1547C1.33975 5.44017 1.72094 4.77992 2.33975 4.42265L9 0.57735Z" fill="#C3BAAD"/>
<path id="B" d="M7.30762 13.3844V6.92285H10.4645C11.2768 6.92285 11.8861 7.0767 12.2922 7.38439C12.7045 7.69208 12.9107 8.09824 12.9107 8.60285C12.9107 8.94131 12.8276 9.2367 12.6615 9.48901C12.4953 9.73516 12.2676 9.92593 11.9784 10.0613C11.6892 10.1967 11.3568 10.2644 10.9815 10.2644L11.1568 9.88593C11.563 9.88593 11.923 9.95362 12.2368 10.089C12.5507 10.2182 12.7938 10.4121 12.9661 10.6705C13.1445 10.929 13.2338 11.2459 13.2338 11.6213C13.2338 12.1752 13.0153 12.609 12.5784 12.9229C12.1415 13.2305 11.4984 13.3844 10.6492 13.3844H7.30762ZM8.79377 12.2582H10.5384C10.9261 12.2582 11.2184 12.1967 11.4153 12.0736C11.6184 11.9444 11.7199 11.7413 11.7199 11.4644C11.7199 11.1936 11.6184 10.9936 11.4153 10.8644C11.2184 10.729 10.9261 10.6613 10.5384 10.6613H8.683V9.57208H10.2799C10.643 9.57208 10.9199 9.51054 11.1107 9.38747C11.3076 9.25824 11.4061 9.06439 11.4061 8.80593C11.4061 8.55362 11.3076 8.36593 11.1107 8.24285C10.9199 8.11362 10.643 8.04901 10.2799 8.04901H8.79377V12.2582Z" fill="white"/>
</g>
</svg>
