<svg width="24" height="24" viewBox="0 0 24 24" fill="none" xmlns="http://www.w3.org/2000/svg">
<g id="indeterminate_check_box">
<mask id="mask0_10945_2115" style="mask-type:alpha" maskUnits="userSpaceOnUse" x="0" y="0" width="24" height="24">
<rect id="Bounding box" width="24" height="24" fill="#D9D9D9"/>
</mask>
<g mask="url(#mask0_10945_2115)">
<path id="indeterminate_check_box_2" d="M8 12.75H16C16.2128 12.75 16.391 12.6782 16.5345 12.5345C16.6782 12.391 16.75 12.2128 16.75 12C16.75 11.7872 16.6782 11.609 16.5345 11.4655C16.391 11.3218 16.2128 11.25 16 11.25H8C7.78717 11.25 7.609 11.3218 7.4655 11.4655C7.32183 11.609 7.25 11.7872 7.25 12C7.25 12.2128 7.32183 12.391 7.4655 12.5345C7.609 12.6782 7.78717 12.75 8 12.75ZM5.30775 20.5C4.80258 20.5 4.375 20.325 4.025 19.975C3.675 19.625 3.5 19.1974 3.5 18.6923V5.30775C3.5 4.80258 3.675 4.375 4.025 4.025C4.375 3.675 4.80258 3.5 5.30775 3.5H18.6923C19.1974 3.5 19.625 3.675 19.975 4.025C20.325 4.375 20.5 4.80258 20.5 5.30775V18.6923C20.5 19.1974 20.325 19.625 19.975 19.975C19.625 20.325 19.1974 20.5 18.6923 20.5H5.30775Z" fill="#495057"/>
</g>
</g>
</svg>
