<svg width="24" height="24" viewBox="0 0 24 24" fill="none" xmlns="http://www.w3.org/2000/svg">
<g id="keyboard_arrow_left">
<mask id="mask0_10945_2005" style="mask-type:alpha" maskUnits="userSpaceOnUse" x="0" y="0" width="24" height="24">
<rect id="Bounding box" width="24" height="24" fill="#D9D9D9"/>
</mask>
<g mask="url(#mask0_10945_2005)">
<path id="keyboard_arrow_left_2" d="M10.2307 12.3396L14.304 16.4126C14.4423 16.5511 14.5132 16.7252 14.5165 16.9349C14.5197 17.1444 14.4488 17.3216 14.304 17.4666C14.159 17.6114 13.9833 17.6839 13.777 17.6839C13.5707 17.6839 13.395 17.6114 13.25 17.4666L8.75575 12.9724C8.66225 12.8787 8.59625 12.7799 8.55775 12.6761C8.51925 12.5723 8.5 12.4601 8.5 12.3396C8.5 12.2191 8.51925 12.1069 8.55775 12.0031C8.59625 11.8993 8.66225 11.8005 8.75575 11.7069L13.25 7.2126C13.3885 7.07427 13.5626 7.00343 13.7722 7.0001C13.9817 6.99693 14.159 7.06777 14.304 7.2126C14.4488 7.3576 14.5213 7.53327 14.5213 7.7396C14.5213 7.94594 14.4488 8.1216 14.304 8.2666L10.2307 12.3396Z" fill="#495057"/>
</g>
</g>
</svg>
