<svg width="24" height="24" viewBox="0 0 24 24" fill="none" xmlns="http://www.w3.org/2000/svg">
<g id="keyboard_arrow_up">
<mask id="mask0_10945_2004" style="mask-type:alpha" maskUnits="userSpaceOnUse" x="0" y="0" width="24" height="24">
<rect id="Bounding box" width="24" height="24" fill="#D9D9D9"/>
</mask>
<g mask="url(#mask0_10945_2004)">
<path id="keyboard_arrow_up_2" d="M12.3443 10.4535L8.27125 14.5268C8.13275 14.6651 7.95867 14.7359 7.749 14.7393C7.5395 14.7424 7.36225 14.6716 7.21725 14.5268C7.07242 14.3818 7 14.2061 7 13.9998C7 13.7934 7.07242 13.6178 7.21725 13.4728L11.7115 8.97852C11.8923 8.79785 12.1033 8.70752 12.3443 8.70752C12.5853 8.70752 12.7962 8.79785 12.977 8.97852L17.4713 13.4728C17.6096 13.6113 17.6804 13.7854 17.6838 13.995C17.6869 14.2045 17.6161 14.3818 17.4713 14.5268C17.3263 14.6716 17.1506 14.744 16.9443 14.744C16.7379 14.744 16.5623 14.6716 16.4172 14.5268L12.3443 10.4535Z" fill="#495057"/>
</g>
</g>
</svg>
