<svg width="24" height="24" viewBox="0 0 24 24" fill="none" xmlns="http://www.w3.org/2000/svg">
<g id="keyboard_arrow_right">
<mask id="mask0_10945_2006" style="mask-type:alpha" maskUnits="userSpaceOnUse" x="0" y="0" width="24" height="24">
<rect id="Bounding box" width="24" height="24" fill="#D9D9D9"/>
</mask>
<g mask="url(#mask0_10945_2006)">
<path id="keyboard_arrow_right_2" d="M14.2905 12.3443L10.2173 8.27125C10.0789 8.13275 10.0081 7.95867 10.0048 7.749C10.0016 7.5395 10.0724 7.36225 10.2173 7.21725C10.3623 7.07242 10.5379 7 10.7442 7C10.9506 7 11.1262 7.07242 11.2712 7.21725L15.7655 11.7115C15.859 11.8052 15.925 11.9039 15.9635 12.0078C16.002 12.1116 16.0213 12.2238 16.0213 12.3443C16.0213 12.4648 16.002 12.5769 15.9635 12.6808C15.925 12.7846 15.859 12.8833 15.7655 12.977L11.2712 17.4713C11.1327 17.6096 10.9587 17.6804 10.749 17.6838C10.5395 17.6869 10.3623 17.6161 10.2173 17.4713C10.0724 17.3263 10 17.1506 10 16.9443C10 16.7379 10.0724 16.5623 10.2173 16.4173L14.2905 12.3443Z" fill="#495057"/>
</g>
</g>
</svg>
