<svg width="24" height="24" viewBox="0 0 24 24" fill="none" xmlns="http://www.w3.org/2000/svg">
<g id="search 1">
<path id="Vector" d="M19.813 18.8711L15.8369 14.8951C16.9205 13.5699 17.4532 11.8789 17.325 10.172C17.1967 8.46502 16.4173 6.87267 15.1479 5.72427C13.8785 4.57587 12.2163 3.9593 10.5051 4.00209C8.79386 4.04487 7.16454 4.74374 5.95414 5.95414C4.74374 7.16454 4.04487 8.79386 4.00209 10.5051C3.9593 12.2163 4.57587 13.8785 5.72427 15.1479C6.87267 16.4173 8.46502 17.1967 10.172 17.325C11.8789 17.4532 13.5699 16.9205 14.8951 15.8369L18.8711 19.813C18.9967 19.9344 19.165 20.0015 19.3397 20C19.5143 19.9985 19.6814 19.9284 19.8049 19.8049C19.9284 19.6814 19.9985 19.5143 20 19.3397C20.0015 19.165 19.9344 18.9967 19.813 18.8711ZM10.6825 16.0115C9.62855 16.0115 8.59825 15.6989 7.72191 15.1134C6.84556 14.5278 6.16254 13.6956 5.7592 12.7218C5.35587 11.7481 5.25034 10.6766 5.45595 9.64289C5.66157 8.60917 6.16911 7.65964 6.91437 6.91437C7.65964 6.16911 8.60917 5.66157 9.64289 5.45595C10.6766 5.25034 11.7481 5.35587 12.7218 5.7592C13.6956 6.16254 14.5278 6.84556 15.1134 7.72191C15.6989 8.59825 16.0115 9.62855 16.0115 10.6825C16.0099 12.0954 15.4479 13.4499 14.4489 14.4489C13.4499 15.4479 12.0954 16.0099 10.6825 16.0115Z" fill="#495057"/>
</g>
</svg>
