<svg width="80" height="80" viewBox="0 0 80 80" fill="none" xmlns="http://www.w3.org/2000/svg">
<g id="shop-2 1">
<path id="Vector" d="M70.8657 67.4515H70.2437V21.0907C70.2437 20.2803 69.5874 19.6239 68.7779 19.6239H61.9324V16.2574H65.9534C66.7634 16.2574 67.4198 15.6006 67.4198 14.7906V3.94238C67.4198 3.13193 66.7634 2.47559 65.9534 2.47559H13.4237C12.6142 2.47559 11.9574 3.13193 11.9574 3.94238V14.7906C11.9574 15.6006 12.6142 16.2574 13.4237 16.2574H17.4448V19.6239H10.5998C9.79024 19.6239 9.13344 20.2803 9.13344 21.0907V67.4515H8.46197C7.65243 67.4515 6.99609 68.1078 6.99609 68.9173V76.0091C6.99609 76.8186 7.65243 77.4759 8.46197 77.4759H70.8657C71.6752 77.4759 72.332 76.8186 72.332 76.0091V68.9173C72.332 68.1078 71.6752 67.4515 70.8657 67.4515ZM12.0666 22.5974H17.4448V32.5709C17.4448 33.679 16.5431 34.5808 15.4345 34.5808H14.0769C12.9683 34.5808 12.0666 33.679 12.0666 32.5709V22.5974ZM20.377 22.5974H25.7561V32.5709C25.7561 33.679 24.854 34.5808 23.7454 34.5808H22.3873C21.2792 34.5808 20.377 33.679 20.377 32.5709V22.5974ZM28.6884 22.5974H34.0666V32.5709C34.0666 33.679 33.1649 34.5808 32.0563 34.5808H30.6987C29.5901 34.5808 28.6884 33.679 28.6884 32.5709V22.5974ZM36.9997 22.5974H42.3779V32.5709C42.3779 33.679 41.4762 34.5808 40.3676 34.5808H39.01C37.9014 34.5808 36.9997 33.679 36.9997 32.5709V22.5974ZM45.3106 22.5974H50.6884V32.5709C50.6884 33.679 49.7866 34.5808 48.6785 34.5808H47.3204C46.2123 34.5808 45.3106 33.679 45.3106 32.5709V22.5974ZM53.6215 22.5974H58.9997V32.5709C58.9997 33.679 58.098 34.5808 56.9899 34.5808H55.6318C54.5237 34.5808 53.6215 33.679 53.6215 32.5709V22.5974ZM61.9324 22.5974H67.3111V32.5709C67.3111 33.679 66.4094 34.5808 65.3008 34.5808H63.9431C62.8341 34.5808 61.9324 33.679 61.9324 32.5709V22.5974ZM14.8905 5.40825H64.4871V13.3242H14.8905V5.40825ZM20.377 16.2574H58.9997V19.6239H20.377V16.2574ZM12.0666 37.0846C12.6812 37.3598 13.3609 37.5134 14.0769 37.5134H15.4345C16.7889 37.5134 18.0172 36.9658 18.9111 36.0801C19.8051 36.9658 21.0333 37.5134 22.3873 37.5134H23.7458C25.1003 37.5134 26.3286 36.9658 27.222 36.0801C28.1155 36.9658 29.3442 37.5134 30.6987 37.5134H32.0563C33.4107 37.5134 34.6394 36.9658 35.5334 36.0801C36.4268 36.9658 37.6556 37.5134 39.01 37.5134H40.3676C41.7221 37.5134 42.9508 36.9658 43.8443 36.0801C44.7382 36.9658 45.9669 37.5134 47.3214 37.5134H48.679C50.0334 37.5134 51.2621 36.9658 52.1556 36.0801C53.0495 36.9658 54.2778 37.5134 55.6318 37.5134H56.9903C58.3443 37.5134 59.5726 36.9658 60.4665 36.0801C61.36 36.9658 62.5887 37.5134 63.9431 37.5134H65.3008C66.0167 37.5134 66.6965 37.3598 67.3111 37.0846V67.4515H49.101V44.4603C49.101 43.6503 48.4446 42.9939 47.6342 42.9939H31.743C30.933 42.9939 30.2762 43.6503 30.2762 44.4603V53.8357C30.2762 54.6452 30.933 55.3016 31.743 55.3016C32.5525 55.3016 33.2093 54.6452 33.2093 53.8357V45.9266H46.1683V67.4515H33.2093V65.3526C33.2093 64.5422 32.5525 63.8858 31.743 63.8858C30.933 63.8858 30.2762 64.5422 30.2762 65.3526V67.4515H12.0666V37.0846ZM69.3989 74.5432H9.92876V70.3837H69.3989V74.5432Z" fill="#495057"/>
<path id="Vector_2" d="M26.6341 42.9937H15.7667C14.9571 42.9937 14.3008 43.65 14.3008 44.46V59.57C14.3008 60.38 14.9571 61.0364 15.7667 61.0364H26.6341C27.4436 61.0364 28.1 60.38 28.1 59.57V44.46C28.1 43.65 27.4436 42.9937 26.6341 42.9937ZM25.1673 58.1042H17.2334V45.9263H25.1673V58.1042Z" fill="#495057"/>
<path id="Vector_3" d="M19.9867 52.0816C20.3375 52.0816 20.6893 51.9568 20.9705 51.7023L23.344 49.5535C23.944 49.01 23.9898 48.083 23.4463 47.4826C22.9028 46.8822 21.9759 46.8364 21.3755 47.3799L19.0019 49.5282C18.4015 50.0722 18.3552 50.9992 18.8987 51.6C19.1886 51.9192 19.5867 52.0816 19.9867 52.0816Z" fill="#495057"/>
<path id="Vector_4" d="M19.9867 56.8868C20.3375 56.8868 20.6893 56.7621 20.9705 56.5075L23.344 54.3587C23.944 53.8152 23.9898 52.8882 23.4463 52.2874C22.9028 51.6875 21.9759 51.6416 21.3755 52.1851L19.0019 54.3339C18.4015 54.8774 18.3552 55.8044 18.8987 56.4052C19.1886 56.7245 19.5867 56.8868 19.9867 56.8868Z" fill="#495057"/>
<path id="Vector_5" d="M52.7823 61.0364H63.6497C64.4593 61.0364 65.1156 60.38 65.1156 59.57V44.46C65.1156 43.65 64.4593 42.9937 63.6497 42.9937H52.7823C51.9727 42.9937 51.3164 43.65 51.3164 44.46V59.57C51.3164 60.38 51.9727 61.0364 52.7823 61.0364ZM54.2491 45.9263H62.1829V58.1042H54.2491V45.9263Z" fill="#495057"/>
<path id="Vector_6" d="M58.3926 47.3799L56.0191 49.5282C55.4192 50.0722 55.3728 50.9992 55.9163 51.6C56.2058 51.9197 56.6039 52.0821 57.0034 52.0821C57.3547 52.0821 57.7065 51.9568 57.9872 51.7027L60.3608 49.5535C60.9607 49.0104 61.007 48.083 60.4635 47.4826C59.92 46.8822 58.993 46.8364 58.3926 47.3799Z" fill="#495057"/>
<path id="Vector_7" d="M58.3926 52.1851L56.0191 54.3339C55.4192 54.8774 55.3728 55.8043 55.9163 56.4052C56.2058 56.7249 56.6039 56.8872 57.0034 56.8872C57.3547 56.8872 57.7065 56.762 57.9872 56.5079L60.3608 54.3586C60.9607 53.8151 61.007 52.8882 60.4635 52.2878C59.92 51.6874 58.993 51.6416 58.3926 52.1851Z" fill="#495057"/>
<path id="Vector_8" d="M42.6708 57.6547C42.7818 57.6547 42.895 57.6423 43.0079 57.6152L43.0771 57.5992C43.8651 57.4134 44.3536 56.6236 44.1683 55.8356C43.9825 55.0472 43.1927 54.5587 42.4047 54.7445L42.3355 54.7606C41.5475 54.9468 41.059 55.7357 41.2443 56.5241C41.4035 57.1992 42.0052 57.6547 42.6708 57.6547Z" fill="#495057"/>
<path id="Vector_9" d="M31.7076 61.0452C31.8182 61.0452 31.931 61.0328 32.0429 61.0062L32.1122 60.9897C32.9011 60.8053 33.39 60.0164 33.2061 59.228C33.0212 58.4396 32.2319 57.9502 31.4435 58.1346L31.3742 58.1506C30.5858 58.3355 30.0964 59.1244 30.2812 59.9128C30.4395 60.5888 31.0417 61.0452 31.7076 61.0452Z" fill="#495057"/>
<path id="Vector_10" d="M53.6944 10.8326C54.5049 10.8326 55.1612 10.1762 55.1612 9.36578C55.1612 8.55624 54.5049 7.8999 53.6944 7.8999H19.9385C19.129 7.8999 18.4727 8.55624 18.4727 9.36578C18.4727 10.1762 19.129 10.8326 19.9385 10.8326H53.6944Z" fill="#495057"/>
<path id="Vector_11" d="M59.5865 10.8413C59.6979 10.8413 59.8108 10.828 59.9241 10.8019L59.9929 10.7849C60.7813 10.5996 61.2698 9.81026 61.084 9.02229C60.8987 8.23339 60.1089 7.74538 59.3209 7.93022L59.2517 7.94673C58.4632 8.13249 57.9748 8.92184 58.1605 9.71027C58.3197 10.3859 58.9214 10.8413 59.5865 10.8413Z" fill="#495057"/>
</g>
</svg>
