<svg width="24" height="24" viewBox="0 0 24 24" fill="none" xmlns="http://www.w3.org/2000/svg">
<g id="storefront">
<mask id="mask0_11014_12528" style="mask-type:alpha" maskUnits="userSpaceOnUse" x="0" y="0" width="24" height="24">
<rect id="Bounding box" width="24" height="24" fill="#D9D9D9"/>
</mask>
<g mask="url(#mask0_11014_12528)">
<path id="storefront_2" d="M20.7653 11.973V19.9423C20.7653 20.4474 20.5903 20.875 20.2403 21.225C19.8903 21.575 19.4628 21.75 18.9578 21.75H5.07304C4.56804 21.75 4.14054 21.575 3.79054 21.225C3.44054 20.875 3.26554 20.4474 3.26554 19.9423V11.9538C2.86288 11.6231 2.56063 11.1939 2.35879 10.6663C2.15679 10.1388 2.15263 9.56925 2.34629 8.95775L3.35779 5.65375C3.49113 5.23325 3.71738 4.89417 4.03654 4.6365C4.35588 4.37883 4.73729 4.25 5.18079 4.25H18.8308C19.2745 4.25 19.6533 4.37308 19.9673 4.61925C20.2815 4.86542 20.5103 5.20392 20.6538 5.63475L21.6845 8.95775C21.8782 9.56925 21.874 10.1368 21.672 10.6605C21.4702 11.1843 21.168 11.6218 20.7653 11.973ZM14.2155 11.25C14.7617 11.25 15.1723 11.083 15.4473 10.749C15.7223 10.415 15.8348 10.0563 15.7848 9.673L15.177 5.75H12.7653V9.7C12.7653 10.1205 12.9076 10.484 13.1923 10.7905C13.477 11.0968 13.818 11.25 14.2155 11.25ZM9.71554 11.25C10.1757 11.25 10.549 11.0968 10.8355 10.7905C11.1222 10.484 11.2655 10.1205 11.2655 9.7V5.75H8.85379L8.24629 9.7115C8.19229 10.0667 8.30379 10.4119 8.58079 10.7473C8.85779 11.0824 9.23604 11.25 9.71554 11.25ZM5.26554 11.25C5.63604 11.25 5.95463 11.1208 6.22129 10.8625C6.48796 10.6042 6.65271 10.2795 6.71554 9.8885L7.30379 5.75H5.18079C5.07179 5.75 4.98529 5.774 4.92129 5.822C4.85713 5.87017 4.80904 5.94233 4.77704 6.0385L3.81529 9.29225C3.68329 9.72175 3.74554 10.1554 4.00204 10.5932C4.25838 11.0311 4.67954 11.25 5.26554 11.25ZM18.7655 11.25C19.3065 11.25 19.7206 11.0375 20.0078 10.6125C20.295 10.1875 20.3642 9.74742 20.2155 9.29225L19.2038 6.01925C19.1718 5.92308 19.1238 5.85417 19.0598 5.8125C18.9956 5.77083 18.909 5.75 18.8 5.75H16.727L17.3153 9.8885C17.3781 10.2795 17.5429 10.6042 17.8095 10.8625C18.0762 11.1208 18.3949 11.25 18.7655 11.25ZM5.07304 20.25H18.9578C19.0475 20.25 19.1211 20.2212 19.1788 20.1635C19.2366 20.1058 19.2655 20.0321 19.2655 19.9423V12.6615C19.1565 12.7013 19.0655 12.726 18.9923 12.7355C18.9193 12.7452 18.8437 12.75 18.7655 12.75C18.3155 12.75 17.9197 12.6686 17.578 12.5058C17.2364 12.3429 16.9052 12.082 16.5845 11.723C16.3039 12.0358 15.9719 12.2853 15.5885 12.4713C15.2052 12.6571 14.768 12.75 14.277 12.75C13.8527 12.75 13.4527 12.6618 13.077 12.4855C12.7014 12.3093 12.3475 12.0552 12.0155 11.723C11.7065 12.0552 11.3565 12.3093 10.9655 12.4855C10.5744 12.6618 10.1782 12.75 9.77704 12.75C9.32571 12.75 8.90263 12.6683 8.50779 12.5048C8.11296 12.3413 7.76554 12.0807 7.46554 11.723C7.04488 12.1435 6.65729 12.4198 6.30279 12.552C5.94846 12.684 5.60271 12.75 5.26554 12.75C5.18721 12.75 5.10638 12.7452 5.02304 12.7355C4.93971 12.726 4.85379 12.7013 4.76529 12.6615V19.9423C4.76529 20.0321 4.79421 20.1058 4.85204 20.1635C4.90971 20.2212 4.98338 20.25 5.07304 20.25Z" fill="#495057"/>
</g>
</g>
</svg>
