<svg width="24" height="24" viewBox="0 0 24 24" fill="none" xmlns="http://www.w3.org/2000/svg">
<g id="visibility_off">
<mask id="mask0_10945_2116" style="mask-type:alpha" maskUnits="userSpaceOnUse" x="0" y="0" width="24" height="24">
<rect id="Bounding box" width="24" height="24" fill="#D9D9D9"/>
</mask>
<g mask="url(#mask0_10945_2116)">
<path id="visibility_off_2" d="M19.2347 21.3421L15.7155 17.8536C15.1256 18.0818 14.5195 18.2466 13.897 18.3479C13.2746 18.4492 12.6423 18.4999 12 18.4999C9.89481 18.4999 7.96689 17.94 6.21623 16.8201C4.46573 15.7001 3.07831 14.2241 2.05398 12.3921C1.97064 12.2486 1.90973 12.1025 1.87123 11.9536C1.83273 11.805 1.81348 11.6537 1.81348 11.4999C1.81348 11.3461 1.83431 11.1931 1.87598 11.0411C1.91764 10.8893 1.98014 10.7448 2.06348 10.6076C2.46214 9.94481 2.88589 9.30347 3.33473 8.68364C3.78339 8.06364 4.30514 7.51522 4.89998 7.03839L2.64223 4.76514C2.50389 4.62681 2.43306 4.45539 2.42973 4.25089C2.42656 4.04639 2.50256 3.86656 2.65773 3.71139C2.80256 3.56656 2.97823 3.49414 3.18473 3.49414C3.39106 3.49414 3.56664 3.56656 3.71148 3.71139L20.2885 20.2884C20.427 20.4269 20.5004 20.5983 20.5087 20.8026C20.5171 21.0071 20.4436 21.187 20.2885 21.3421C20.1436 21.487 19.968 21.5594 19.7615 21.5594C19.5551 21.5594 19.3796 21.487 19.2347 21.3421ZM12 15.5769C12.2218 15.5769 12.4336 15.5637 12.6355 15.5374C12.8375 15.5111 13.0346 15.4536 13.227 15.3651L8.13473 10.2729C8.05256 10.4652 7.99673 10.6624 7.96723 10.8644C7.93773 11.0662 7.92298 11.2781 7.92298 11.4999C7.92298 12.6346 8.31881 13.5977 9.11048 14.3894C9.90214 15.1811 10.8653 15.5769 12 15.5769ZM12 4.49989C14.1115 4.49989 16.0483 5.06239 17.8105 6.18739C19.5726 7.31239 20.9627 8.79731 21.9807 10.6421C22.0576 10.7691 22.1168 10.9054 22.1585 11.0509C22.2001 11.1964 22.221 11.3461 22.221 11.4999C22.221 11.6537 22.2027 11.8034 22.1662 11.9489C22.1297 12.0944 22.073 12.2306 21.996 12.3576C21.6921 12.9358 21.3525 13.4806 20.977 13.9921C20.6013 14.5036 20.1814 14.9851 19.7172 15.4364C19.5096 15.6441 19.2634 15.7396 18.9787 15.7229C18.6942 15.7062 18.4481 15.5941 18.2402 15.3864L16.1442 13.2999C16.0404 13.1961 15.9718 13.0761 15.9385 12.9401C15.9051 12.8043 15.9071 12.6626 15.9442 12.5151C15.9916 12.3435 16.0255 12.1768 16.046 12.0151C16.0666 11.8536 16.077 11.6819 16.077 11.4999C16.077 10.3652 15.6811 9.40206 14.8895 8.61039C14.0978 7.81872 13.1346 7.42289 12 7.42289C11.818 7.42289 11.6478 7.43481 11.4895 7.45864C11.3311 7.48231 11.1692 7.51789 11.0037 7.56539C10.8564 7.60889 10.709 7.61397 10.5615 7.58064C10.4141 7.54731 10.2886 7.47872 10.1847 7.37489L9.25373 6.44414C8.96923 6.15947 8.87473 5.82806 8.97023 5.44989C9.06573 5.07172 9.30581 4.83072 9.69048 4.72689C10.0686 4.64989 10.4494 4.59281 10.8327 4.55564C11.2161 4.51847 11.6051 4.49989 12 4.49989ZM13.9365 9.61139C14.1391 9.83456 14.3061 10.0849 14.4375 10.3624C14.5688 10.6399 14.6511 10.93 14.6845 11.2326C14.7011 11.3531 14.656 11.4368 14.549 11.4836C14.442 11.5303 14.3416 11.5069 14.248 11.4134L12.102 9.27689C12.0083 9.18322 11.9875 9.08289 12.0395 8.97589C12.0913 8.86889 12.1775 8.81539 12.298 8.81539C12.6211 8.84222 12.9192 8.92331 13.1922 9.05864C13.4654 9.19381 13.7135 9.37806 13.9365 9.61139Z" fill="#495057"/>
</g>
</g>
</svg>
